<?xml version="1.0" standalone="no"?><!DOCTYPE svg PUBLIC "-//W3C//DTD SVG 1.1//EN" "http://www.w3.org/Graphics/SVG/1.1/DTD/svg11.dtd"><svg t="1592719611862" class="icon" viewBox="0 0 1024 1024" version="1.1" xmlns="http://www.w3.org/2000/svg" p-id="7501" xmlns:xlink="http://www.w3.org/1999/xlink" width="32" height="32"><defs><style type="text/css"></style></defs><path d="M962.032 448.943c20.085 0 36.368-16.284 36.368-36.368V158.529c0-15.812-10.216-29.81-25.272-34.634L673.106 27.779a36.39 36.39 0 0 0-22.19 0l-288.928 92.56L73.063 27.78a36.36 36.36 0 0 0-32.532 5.256A36.366 36.366 0 0 0 25.6 62.413v803.06c0 15.809 10.215 29.81 25.272 34.631l300.02 96.116a36.36 36.36 0 0 0 22.19 0l288.928-92.56 288.926 92.56a36.383 36.383 0 0 0 32.535-5.256 36.368 36.368 0 0 0 14.929-29.378V623.157c0-20.086-16.282-36.368-36.368-36.368s-36.369 16.281-36.369 36.368V911.75L694.31 837.631V399.307l33.73-47.203a260.427 260.427 0 0 0-26.86-16.814l-6.87 12.63V110.95l231.354 74.115v227.51c0.001 20.084 16.283 36.368 36.369 36.368zM621.576 840.237l-223.22 71.512V409.635l10.228 29.108a201.55 201.55 0 0 1 21.634-6.266l-13.547-59.052c-6.126 1.406-12.25 3.076-18.315 4.94V185.066l223.22-71.512v726.683zM98.335 112.253l227.285 72.811v255.742l-13.47-17.991a333.886 333.886 0 0 0-22.104 18.1l35.574 39.868V911.75L98.335 838.935V112.253z" p-id="7502" fill="#ffffff"></path><path d="M190.94 577.063l55.857 23.464c0.034-0.08 3.462-8.132 10.27-20.57l-53.146-29.088c-8.315 15.192-12.528 25.114-12.98 26.194zM269.668 460.6a396.795 396.795 0 0 0-18.729 21l46.604 38.716a336.136 336.136 0 0 1 15.855-17.784l-43.73-41.933zM218.125 526.797l51.18 32.42a385.045 385.045 0 0 1 13.527-19.947l-49.049-35.563a447.042 447.042 0 0 0-15.658 23.09zM752.672 372.119l-41.063 44.548a189.84 189.84 0 0 1 16.657 17.433l46.392-38.968a250.911 250.911 0 0 0-21.986-23.013zM834.27 538.453l-60.166 7.138a292.557 292.557 0 0 1 1.864 25.264l60.556-1.888a354.156 354.156 0 0 0-2.254-30.514zM763.398 497.195c2.574 7.618 4.784 15.61 6.574 23.754l59.174-13.004c-2.262-10.294-5.07-20.432-8.348-30.138l-57.4 19.388zM808.958 448.553a253.268 253.268 0 0 0-15.425-27.766l-50.998 32.706a193.289 193.289 0 0 1 11.728 21.12l54.695-26.06zM775.018 608.597l60.402 4.696c0.364-4.654 0.652-9.34 0.862-13.926l-60.522-2.768c-0.18 3.946-0.43 7.982-0.742 11.998zM253.958 670.102a24.463 24.463 0 0 0-0.165-2.506 67.332 67.332 0 0 0-0.779-5.007 24.404 24.404 0 0 0-0.61-2.457 24.737 24.737 0 0 0-0.541-2.474 67.97 67.97 0 0 0-1.512-4.822 25.306 25.306 0 0 0-0.968-2.342 25.132 25.132 0 0 0-0.905-2.369 68.704 68.704 0 0 0-2.211-4.538 24.847 24.847 0 0 0-1.304-2.168 24.45 24.45 0 0 0-1.238-2.194 68.342 68.342 0 0 0-2.864-4.172 25.458 25.458 0 0 0-1.6-1.938c-0.482-0.686-1-1.354-1.56-2a69.218 69.218 0 0 0-3.421-3.674 24.625 24.625 0 0 0-1.878-1.692 24.676 24.676 0 0 0-1.824-1.738 68.492 68.492 0 0 0-3.947-3.148 24.349 24.349 0 0 0-2.108-1.395 24.321 24.321 0 0 0-2.054-1.446 68.363 68.363 0 0 0-4.385-2.54c-0.755-0.4-1.521-0.757-2.298-1.072a24.656 24.656 0 0 0-2.243-1.124 67.307 67.307 0 0 0-4.734-1.868 24.213 24.213 0 0 0-2.431-0.716c-0.78-0.3-1.581-0.562-2.405-0.784a67.9 67.9 0 0 0-4.932-1.132 24.127 24.127 0 0 0-2.505-0.348 24.89 24.89 0 0 0-2.489-0.415 69.026 69.026 0 0 0-5.02-0.389 24.834 24.834 0 0 0-2.518 0.026 24.548 24.548 0 0 0-2.52-0.046 68.449 68.449 0 0 0-5.02 0.35c-0.841 0.09-1.672 0.222-2.484 0.394-0.833 0.065-1.674 0.174-2.514 0.326-1.647 0.302-3.308 0.67-4.934 1.094a24.58 24.58 0 0 0-2.42 0.766c-0.817 0.188-1.63 0.42-2.44 0.698a69.233 69.233 0 0 0-4.71 1.813c-0.786 0.336-1.546 0.71-2.278 1.119-0.776 0.306-1.544 0.656-2.3 1.05a66.503 66.503 0 0 0-4.39 2.494c-0.724 0.448-1.417 0.925-2.077 1.435-0.72 0.418-1.429 0.876-2.117 1.379a69.74 69.74 0 0 0-3.96 3.103 24.83 24.83 0 0 0-1.843 1.727 25.122 25.122 0 0 0-1.896 1.68 68.416 68.416 0 0 0-3.456 3.65 24.555 24.555 0 0 0-1.576 1.987 24.836 24.836 0 0 0-1.606 1.912 67.875 67.875 0 0 0-2.908 4.159 24.57 24.57 0 0 0-1.257 2.184 24.217 24.217 0 0 0-1.319 2.15 68.16 68.16 0 0 0-2.254 4.535 23.96 23.96 0 0 0-0.926 2.366c-0.364 0.75-0.694 1.526-0.986 2.326a67.972 67.972 0 0 0-1.559 4.834 24.44 24.44 0 0 0-0.559 2.464 24.845 24.845 0 0 0-0.628 2.452 67.633 67.633 0 0 0-0.818 4.994 24.72 24.72 0 0 0-0.187 2.516c-0.127 0.818-0.213 1.65-0.256 2.495a67.646 67.646 0 0 0-0.075 5.021c0.019 0.848 0.079 1.686 0.182 2.51-0.006 0.834 0.03 1.676 0.111 2.524 0.159 1.668 0.383 3.35 0.665 5 0.145 0.844 0.33 1.669 0.555 2.474 0.117 0.829 0.278 1.658 0.486 2.487a67.812 67.812 0 0 0 1.405 4.858c0.268 0.812 0.575 1.6 0.917 2.364 0.239 0.8 0.523 1.596 0.85 2.384a67.398 67.398 0 0 0 2.113 4.596c0.384 0.757 0.802 1.487 1.252 2.188 0.356 0.753 0.753 1.498 1.193 2.228a68.8 68.8 0 0 0 2.76 4.216c0.493 0.698 1.018 1.36 1.568 1.99 0.46 0.688 0.96 1.36 1.498 2.012a67.277 67.277 0 0 0 3.366 3.777 24.278 24.278 0 0 0 1.83 1.723 24.761 24.761 0 0 0 1.775 1.77 67.87 67.87 0 0 0 3.882 3.24 24.214 24.214 0 0 0 2.076 1.442c0.644 0.53 1.322 1.03 2.031 1.5a69.314 69.314 0 0 0 4.312 2.625c0.747 0.416 1.505 0.79 2.273 1.123 0.722 0.43 1.472 0.828 2.251 1.19a67.841 67.841 0 0 0 4.652 1.953c0.801 0.305 1.608 0.56 2.418 0.775 0.774 0.318 1.574 0.598 2.394 0.84 1.617 0.473 3.27 0.893 4.914 1.243 0.83 0.179 1.658 0.31 2.485 0.4 0.814 0.198 1.645 0.36 2.496 0.475 1.66 0.226 3.35 0.394 5.019 0.5 0.847 0.052 1.685 0.06 2.515 0.025 0.736 0.068 1.48 0.103 2.234 0.103h0.264c1.667-0.019 3.354-0.1 5.018-0.238a24.879 24.879 0 0 0 2.5-0.34 24.524 24.524 0 0 0 2.537-0.274 68.903 68.903 0 0 0 4.947-0.98 25.247 25.247 0 0 0 2.432-0.71c0.815-0.17 1.63-0.384 2.441-0.64a67.503 67.503 0 0 0 4.78-1.72c0.79-0.319 1.555-0.672 2.29-1.06 0.78-0.29 1.55-0.62 2.309-0.992a68.23 68.23 0 0 0 4.468-2.41 24.55 24.55 0 0 0 2.1-1.385c0.726-0.4 1.44-0.84 2.136-1.322a67.65 67.65 0 0 0 4.052-3.036 24.532 24.532 0 0 0 1.874-1.679 25.23 25.23 0 0 0 1.927-1.634 69.86 69.86 0 0 0 3.541-3.578 24.658 24.658 0 0 0 1.61-1.943 24.84 24.84 0 0 0 1.668-1.9 68.338 68.338 0 0 0 2.979-4.066c0.478-0.706 0.914-1.429 1.308-2.164 0.49-0.68 0.949-1.39 1.373-2.134a68.638 68.638 0 0 0 2.346-4.464c0.37-0.772 0.696-1.554 0.977-2.34 0.382-0.746 0.731-1.517 1.043-2.316a67.941 67.941 0 0 0 1.662-4.786c0.25-0.818 0.454-1.64 0.616-2.462 0.267-0.791 0.495-1.603 0.683-2.438a67.8 67.8 0 0 0 0.929-4.975c0.124-0.842 0.205-1.679 0.242-2.51 0.146-0.823 0.25-1.658 0.312-2.508a68.804 68.804 0 0 0 0.12-8.01 25.067 25.067 0 0 0-0.24-2.506z m-48.436 6.965c-0.017 0.24-0.03 0.478-0.042 0.716-0.042 0.235-0.081 0.474-0.116 0.713a19.19 19.19 0 0 1-0.26 1.4c-0.054 0.233-0.103 0.466-0.15 0.698-0.074 0.223-0.147 0.449-0.215 0.672-0.14 0.454-0.296 0.908-0.47 1.352-0.085 0.22-0.168 0.442-0.247 0.663-0.109 0.21-0.214 0.424-0.318 0.638-0.206 0.43-0.432 0.86-0.673 1.282-0.118 0.206-0.233 0.412-0.345 0.62-0.139 0.193-0.276 0.39-0.41 0.59-0.27 0.396-0.557 0.788-0.857 1.168-0.15 0.189-0.296 0.38-0.439 0.573a21.89 21.89 0 0 0-0.496 0.524c-0.325 0.354-0.67 0.702-1.023 1.034-0.175 0.164-0.348 0.332-0.517 0.5-0.193 0.146-0.383 0.296-0.574 0.45-0.37 0.297-0.752 0.583-1.14 0.853-0.2 0.139-0.4 0.28-0.594 0.424-0.213 0.118-0.423 0.236-0.633 0.36a18.59 18.59 0 0 1-1.24 0.668c-0.22 0.108-0.436 0.218-0.65 0.332-0.225 0.084-0.448 0.168-0.67 0.258-0.435 0.176-0.88 0.336-1.324 0.476-0.23 0.074-0.458 0.15-0.684 0.23-0.233 0.049-0.463 0.1-0.695 0.154-0.46 0.108-0.935 0.204-1.417 0.28-0.23 0.036-0.456 0.076-0.683 0.12-0.24 0.012-0.479 0.03-0.719 0.05a20.6 20.6 0 0 1-1.463 0.067c-0.25 0.005-0.498 0.01-0.746 0.021-0.24-0.024-0.485-0.042-0.726-0.056-0.478-0.03-0.96-0.078-1.436-0.145-0.235-0.031-0.466-0.06-0.7-0.086a20.918 20.918 0 0 0-0.71-0.162 19.728 19.728 0 0 1-1.375-0.348c-0.228-0.067-0.455-0.13-0.683-0.19-0.218-0.09-0.437-0.174-0.658-0.258a20.69 20.69 0 0 1-1.335-0.562 23.861 23.861 0 0 0-0.64-0.286 21.23 21.23 0 0 0-0.619-0.358 19.682 19.682 0 0 1-1.23-0.75 21.802 21.802 0 0 0-0.609-0.39c-0.185-0.152-0.371-0.3-0.562-0.449a20.07 20.07 0 0 1-1.1-0.916c-0.185-0.166-0.37-0.33-0.559-0.49a21.945 21.945 0 0 0-0.497-0.534 19.55 19.55 0 0 1-0.95-1.066c-0.156-0.19-0.316-0.376-0.477-0.56a22.877 22.877 0 0 0-0.404-0.586 20.58 20.58 0 0 1-0.792-1.21c-0.124-0.206-0.25-0.408-0.379-0.61a26.974 26.974 0 0 0-0.317-0.649c-0.211-0.416-0.41-0.852-0.594-1.294a30.525 30.525 0 0 0-0.282-0.653 23.153 23.153 0 0 0-0.212-0.671c-0.15-0.452-0.281-0.915-0.397-1.374-0.057-0.233-0.119-0.46-0.182-0.689a23.775 23.775 0 0 0-0.109-0.702 18.638 18.638 0 0 1-0.191-1.43c-0.023-0.237-0.05-0.478-0.08-0.713 0.003-0.242 0-0.485-0.004-0.728l-0.005-0.445c0-0.342 0.009-0.682 0.025-1.02 0.015-0.247 0.022-0.491 0.028-0.738 0.037-0.238 0.07-0.476 0.1-0.714 0.06-0.47 0.137-0.944 0.232-1.41 0.047-0.234 0.09-0.466 0.13-0.7 0.072-0.229 0.141-0.458 0.206-0.69 0.127-0.452 0.273-0.903 0.43-1.339 0.085-0.228 0.163-0.453 0.238-0.682 0.104-0.212 0.204-0.426 0.301-0.642 0.197-0.436 0.41-0.868 0.637-1.28 0.115-0.212 0.229-0.426 0.336-0.64 0.138-0.2 0.272-0.402 0.405-0.606 0.256-0.398 0.53-0.788 0.812-1.162 0.151-0.2 0.299-0.4 0.443-0.604 0.16-0.172 0.32-0.349 0.477-0.527 0.32-0.363 0.659-0.722 1.005-1.062 0.17-0.165 0.337-0.333 0.5-0.505 0.189-0.149 0.374-0.303 0.559-0.458 0.368-0.31 0.753-0.615 1.143-0.896 0.194-0.14 0.386-0.284 0.575-0.43 0.207-0.12 0.412-0.244 0.617-0.37 0.407-0.25 0.828-0.49 1.25-0.71 0.212-0.107 0.42-0.222 0.627-0.337 0.217-0.084 0.436-0.175 0.653-0.269 0.44-0.188 0.89-0.36 1.338-0.516 0.224-0.076 0.446-0.156 0.666-0.237 0.23-0.053 0.457-0.108 0.686-0.168 0.462-0.122 0.933-0.227 1.4-0.31 0.233-0.045 0.463-0.09 0.696-0.139 0.24-0.018 0.484-0.04 0.726-0.065 0.472-0.053 0.96-0.084 1.452-0.103 0.241-0.008 0.483-0.018 0.724-0.034 0.24 0.019 0.482 0.032 0.726 0.04 0.49 0.02 0.976 0.059 1.447 0.112 0.24 0.028 0.479 0.052 0.718 0.072 0.233 0.052 0.466 0.1 0.7 0.144 0.465 0.088 0.933 0.196 1.39 0.32 0.233 0.063 0.462 0.12 0.695 0.177 0.222 0.086 0.443 0.166 0.667 0.245 0.445 0.156 0.884 0.33 1.307 0.517 0.227 0.098 0.453 0.193 0.68 0.285 0.206 0.116 0.414 0.233 0.625 0.344 0.417 0.22 0.832 0.46 1.232 0.712 0.207 0.132 0.417 0.26 0.626 0.382 0.189 0.148 0.38 0.294 0.573 0.438 0.385 0.282 0.762 0.584 1.127 0.898 0.184 0.158 0.37 0.313 0.557 0.466 0.165 0.172 0.33 0.344 0.5 0.514 0.343 0.34 0.68 0.703 1.002 1.074 0.155 0.179 0.313 0.357 0.471 0.529 0.139 0.197 0.28 0.396 0.426 0.592 0.283 0.382 0.556 0.778 0.808 1.175 0.13 0.206 0.262 0.406 0.397 0.606 0.106 0.214 0.216 0.426 0.327 0.636 0.226 0.422 0.436 0.856 0.628 1.29 0.096 0.215 0.193 0.43 0.295 0.643 0.073 0.222 0.148 0.446 0.227 0.67 0.159 0.448 0.304 0.908 0.43 1.37 0.063 0.23 0.128 0.457 0.197 0.683 0.038 0.233 0.08 0.466 0.125 0.699 0.09 0.464 0.164 0.936 0.218 1.404 0.03 0.241 0.062 0.488 0.097 0.728 0.004 0.241 0.011 0.486 0.022 0.732 0.012 0.28 0.02 0.562 0.02 0.866 0.001 0.494-0.017 0.986-0.053 1.474zM458.284 369.74c-0.006 0.834 0.03 1.677 0.112 2.525 0.16 1.668 0.384 3.35 0.665 5 0.145 0.844 0.328 1.668 0.554 2.474 0.118 0.829 0.28 1.658 0.487 2.486a67.804 67.804 0 0 0 1.404 4.858c0.268 0.812 0.576 1.6 0.917 2.365 0.24 0.8 0.524 1.596 0.85 2.384a67.907 67.907 0 0 0 2.113 4.595c0.384 0.758 0.804 1.49 1.255 2.193 0.354 0.751 0.75 1.494 1.19 2.224a68.754 68.754 0 0 0 2.76 4.214 24.241 24.241 0 0 0 1.565 1.985c0.46 0.692 0.96 1.364 1.5 2.018a67.277 67.277 0 0 0 3.366 3.778 24.416 24.416 0 0 0 1.836 1.726c0.554 0.613 1.144 1.2 1.77 1.765a68.764 68.764 0 0 0 3.883 3.242c0.671 0.518 1.364 0.998 2.07 1.437a24.895 24.895 0 0 0 2.037 1.503 68.124 68.124 0 0 0 4.314 2.627c0.745 0.416 1.502 0.79 2.27 1.123 0.722 0.43 1.474 0.828 2.252 1.19a67.841 67.841 0 0 0 4.652 1.953c0.802 0.304 1.61 0.56 2.42 0.776 0.774 0.317 1.572 0.596 2.392 0.838 1.618 0.474 3.27 0.892 4.914 1.244 0.833 0.178 1.658 0.31 2.484 0.4 0.816 0.198 1.646 0.359 2.497 0.475 1.66 0.226 3.35 0.394 5.02 0.5 0.845 0.05 1.684 0.062 2.513 0.025 0.737 0.068 1.48 0.102 2.235 0.102 0.088 0 0.178 0 0.264-0.002a69.54 69.54 0 0 0 5.018-0.235 24.879 24.879 0 0 0 2.5-0.34 24.543 24.543 0 0 0 2.538-0.275 68.987 68.987 0 0 0 4.946-0.98 24.682 24.682 0 0 0 2.432-0.711 24.642 24.642 0 0 0 2.442-0.638 67.138 67.138 0 0 0 4.78-1.72 24.46 24.46 0 0 0 2.292-1.062 24.86 24.86 0 0 0 2.308-0.993 67.71 67.71 0 0 0 4.465-2.408 24.698 24.698 0 0 0 2.11-1.39 24.783 24.783 0 0 0 2.127-1.318 68.505 68.505 0 0 0 4.052-3.034c0.658-0.532 1.28-1.09 1.867-1.674a24.3 24.3 0 0 0 1.935-1.638 68.65 68.65 0 0 0 3.54-3.58 24.276 24.276 0 0 0 1.611-1.942 24.392 24.392 0 0 0 1.666-1.9 68.567 68.567 0 0 0 2.98-4.066c0.478-0.705 0.915-1.428 1.308-2.163a24.1 24.1 0 0 0 1.374-2.134 69.194 69.194 0 0 0 2.346-4.466 24.1 24.1 0 0 0 0.976-2.342c0.384-0.744 0.732-1.515 1.042-2.312a67.268 67.268 0 0 0 1.662-4.786c0.25-0.818 0.454-1.639 0.617-2.458 0.266-0.793 0.495-1.607 0.684-2.442a66.4 66.4 0 0 0 0.928-4.976c0.126-0.841 0.205-1.678 0.241-2.51 0.147-0.822 0.252-1.657 0.315-2.507a68.797 68.797 0 0 0 0.117-8.01 25.093 25.093 0 0 0-0.237-2.504 24.675 24.675 0 0 0-0.164-2.503 68.982 68.982 0 0 0-0.78-5.007 25.407 25.407 0 0 0-0.609-2.457 25.083 25.083 0 0 0-0.543-2.476 68.488 68.488 0 0 0-1.51-4.822 24.765 24.765 0 0 0-0.97-2.342 24.844 24.844 0 0 0-0.905-2.369 69.231 69.231 0 0 0-2.211-4.538c-0.4-0.754-0.838-1.478-1.306-2.17a24.362 24.362 0 0 0-1.236-2.192 69.2 69.2 0 0 0-2.862-4.17 24.693 24.693 0 0 0-1.602-1.938c-0.48-0.689-1-1.356-1.56-2.002a69.2 69.2 0 0 0-3.42-3.675 25.093 25.093 0 0 0-1.88-1.691 24.664 24.664 0 0 0-1.821-1.738 70.117 70.117 0 0 0-3.948-3.148 25.2 25.2 0 0 0-2.102-1.391 24.633 24.633 0 0 0-2.06-1.45 68.108 68.108 0 0 0-4.386-2.54 23.66 23.66 0 0 0-2.294-1.07 24.71 24.71 0 0 0-2.245-1.126 67.904 67.904 0 0 0-4.734-1.868 24.713 24.713 0 0 0-2.432-0.718c-0.78-0.298-1.582-0.56-2.405-0.782a68.273 68.273 0 0 0-4.931-1.132 24.262 24.262 0 0 0-2.504-0.348 24.382 24.382 0 0 0-2.49-0.416 69.115 69.115 0 0 0-5.02-0.388 24.875 24.875 0 0 0-2.52 0.026 24.497 24.497 0 0 0-2.518-0.046 68.41 68.41 0 0 0-5.02 0.35c-0.843 0.09-1.672 0.222-2.484 0.394-0.833 0.065-1.674 0.174-2.516 0.326a68.88 68.88 0 0 0-4.934 1.094c-0.828 0.216-1.634 0.472-2.42 0.765-0.815 0.189-1.63 0.42-2.44 0.699a69.389 69.389 0 0 0-4.708 1.813 24.13 24.13 0 0 0-2.28 1.119c-0.776 0.306-1.542 0.656-2.3 1.05a67.057 67.057 0 0 0-4.39 2.494 24.87 24.87 0 0 0-2.078 1.435c-0.72 0.418-1.428 0.878-2.115 1.379a70.084 70.084 0 0 0-3.96 3.103 24.43 24.43 0 0 0-1.842 1.727c-0.655 0.52-1.288 1.08-1.897 1.678a69.713 69.713 0 0 0-3.458 3.652 24.27 24.27 0 0 0-1.57 1.982 24.212 24.212 0 0 0-1.611 1.916 69.44 69.44 0 0 0-2.909 4.159c-0.461 0.715-0.88 1.445-1.258 2.188-0.47 0.686-0.91 1.402-1.316 2.148a68.62 68.62 0 0 0-2.256 4.532c-0.352 0.783-0.66 1.572-0.925 2.369-0.364 0.75-0.695 1.526-0.987 2.325a67.964 67.964 0 0 0-1.557 4.835 24.183 24.183 0 0 0-0.56 2.468 24.905 24.905 0 0 0-0.628 2.448 69.11 69.11 0 0 0-0.818 4.994c-0.107 0.842-0.166 1.68-0.186 2.512-0.126 0.818-0.212 1.65-0.256 2.496a66.619 66.619 0 0 0-0.076 5.024c0.016 0.845 0.078 1.682 0.18 2.505z m48.514-5.015c0.012-0.243 0.022-0.49 0.026-0.734 0.038-0.238 0.071-0.478 0.102-0.72 0.06-0.468 0.136-0.942 0.23-1.408 0.049-0.234 0.093-0.47 0.133-0.704a24.2 24.2 0 0 0 0.203-0.686c0.128-0.452 0.273-0.903 0.432-1.339 0.082-0.228 0.162-0.453 0.238-0.682 0.102-0.212 0.204-0.426 0.3-0.642 0.196-0.436 0.412-0.868 0.636-1.28 0.116-0.214 0.23-0.428 0.34-0.646 0.136-0.196 0.27-0.398 0.4-0.602 0.258-0.396 0.53-0.789 0.814-1.16 0.149-0.198 0.296-0.399 0.437-0.598 0.163-0.174 0.323-0.353 0.482-0.533 0.321-0.363 0.66-0.722 1.006-1.062 0.17-0.166 0.337-0.333 0.501-0.506 0.189-0.148 0.374-0.302 0.558-0.457 0.368-0.313 0.754-0.615 1.144-0.896 0.194-0.143 0.386-0.286 0.577-0.432 0.205-0.118 0.411-0.242 0.614-0.368 0.408-0.25 0.828-0.49 1.248-0.71 0.212-0.11 0.422-0.222 0.628-0.338 0.218-0.084 0.436-0.174 0.654-0.268 0.439-0.188 0.888-0.36 1.337-0.516 0.224-0.076 0.446-0.156 0.665-0.237 0.229-0.053 0.46-0.108 0.688-0.17 0.462-0.12 0.934-0.225 1.4-0.309 0.233-0.044 0.464-0.09 0.697-0.138 0.24-0.018 0.484-0.042 0.726-0.065 0.472-0.053 0.96-0.086 1.45-0.103 0.241-0.008 0.484-0.018 0.724-0.034 0.241 0.019 0.484 0.03 0.726 0.04 0.49 0.02 0.977 0.059 1.45 0.112 0.237 0.028 0.476 0.052 0.715 0.072 0.233 0.05 0.466 0.1 0.7 0.144 0.467 0.088 0.933 0.196 1.392 0.32 0.233 0.063 0.462 0.122 0.695 0.177 0.22 0.086 0.444 0.168 0.667 0.245 0.445 0.156 0.884 0.33 1.306 0.516 0.226 0.099 0.451 0.194 0.678 0.284 0.208 0.118 0.415 0.233 0.625 0.344 0.418 0.222 0.833 0.462 1.232 0.714 0.206 0.13 0.414 0.256 0.624 0.38 0.188 0.148 0.382 0.296 0.576 0.44 0.384 0.284 0.762 0.586 1.127 0.898a24 24 0 0 0 0.558 0.466c0.164 0.174 0.33 0.344 0.5 0.514 0.344 0.342 0.68 0.705 1.002 1.074 0.154 0.18 0.312 0.357 0.47 0.53 0.14 0.198 0.282 0.397 0.426 0.593 0.284 0.38 0.556 0.776 0.81 1.175 0.128 0.204 0.262 0.408 0.398 0.608 0.105 0.212 0.212 0.422 0.326 0.632 0.224 0.422 0.436 0.854 0.628 1.29 0.096 0.214 0.192 0.43 0.294 0.643 0.071 0.222 0.148 0.446 0.228 0.67 0.158 0.448 0.302 0.907 0.43 1.37 0.063 0.23 0.126 0.455 0.196 0.681 0.038 0.235 0.08 0.468 0.126 0.703 0.09 0.464 0.163 0.936 0.218 1.402 0.027 0.243 0.06 0.486 0.096 0.728 0.004 0.241 0.01 0.486 0.021 0.73a20.102 20.102 0 0 1-0.036 2.337c-0.018 0.24-0.031 0.478-0.041 0.715-0.042 0.236-0.08 0.474-0.116 0.714-0.07 0.464-0.156 0.936-0.262 1.4-0.052 0.232-0.103 0.462-0.147 0.694-0.075 0.224-0.148 0.45-0.218 0.676a20 20 0 0 1-0.468 1.35c-0.088 0.224-0.17 0.446-0.25 0.667-0.107 0.21-0.212 0.422-0.314 0.636-0.206 0.43-0.434 0.86-0.674 1.282-0.12 0.206-0.234 0.412-0.346 0.62-0.138 0.193-0.276 0.39-0.41 0.588-0.268 0.398-0.558 0.789-0.858 1.17-0.15 0.188-0.295 0.38-0.436 0.572-0.17 0.172-0.334 0.346-0.497 0.525-0.326 0.354-0.67 0.702-1.024 1.034-0.172 0.162-0.342 0.326-0.51 0.491-0.194 0.15-0.388 0.3-0.58 0.456-0.37 0.3-0.752 0.586-1.14 0.854-0.203 0.14-0.405 0.284-0.602 0.43-0.21 0.116-0.418 0.235-0.625 0.357-0.405 0.237-0.82 0.463-1.24 0.667-0.22 0.108-0.435 0.218-0.65 0.332-0.225 0.082-0.447 0.168-0.668 0.258-0.437 0.176-0.882 0.336-1.324 0.476-0.233 0.074-0.458 0.15-0.684 0.229-0.233 0.048-0.464 0.1-0.697 0.155-0.46 0.108-0.936 0.204-1.416 0.28-0.23 0.036-0.456 0.076-0.684 0.12-0.24 0.012-0.478 0.03-0.72 0.05-0.484 0.04-0.976 0.062-1.462 0.067-0.25 0.004-0.498 0.01-0.747 0.019-0.24-0.022-0.484-0.04-0.726-0.057-0.476-0.027-0.96-0.075-1.435-0.142-0.233-0.032-0.466-0.06-0.699-0.086a27.55 27.55 0 0 0-0.711-0.162c-0.458-0.098-0.92-0.216-1.375-0.348-0.228-0.067-0.455-0.13-0.684-0.19-0.216-0.09-0.436-0.176-0.656-0.258a20.715 20.715 0 0 1-1.336-0.563 19.693 19.693 0 0 0-0.64-0.285 21.11 21.11 0 0 0-0.617-0.359c-0.42-0.234-0.833-0.488-1.232-0.75-0.2-0.131-0.4-0.26-0.602-0.385a25.059 25.059 0 0 0-0.568-0.454c-0.38-0.292-0.75-0.602-1.1-0.916-0.186-0.168-0.374-0.33-0.562-0.492-0.162-0.178-0.328-0.354-0.494-0.53-0.33-0.342-0.65-0.7-0.952-1.066a20.48 20.48 0 0 0-0.472-0.556c-0.132-0.2-0.268-0.397-0.405-0.592a18.43 18.43 0 0 1-0.792-1.21c-0.126-0.206-0.252-0.41-0.382-0.61-0.1-0.217-0.206-0.433-0.314-0.647a18.678 18.678 0 0 1-0.596-1.294c-0.09-0.219-0.185-0.437-0.282-0.653a20.323 20.323 0 0 0-0.21-0.671 19.11 19.11 0 0 1-0.398-1.375c-0.059-0.232-0.118-0.46-0.182-0.688-0.034-0.234-0.07-0.468-0.11-0.702-0.08-0.472-0.146-0.953-0.19-1.43-0.022-0.237-0.05-0.478-0.078-0.713 0-0.242 0-0.487-0.006-0.729l-0.005-0.444c0.001-0.338 0.009-0.678 0.027-1.016zM852.502 701.271c0.405-0.356 0.801-0.728 1.19-1.114l2.293-2.296c0.382-0.384 0.752-0.778 1.104-1.18 0.405-0.354 0.8-0.723 1.186-1.11l2.296-2.295c0.384-0.384 0.753-0.78 1.108-1.184 0.405-0.356 0.803-0.726 1.19-1.114l2.295-2.296c0.384-0.384 0.752-0.778 1.104-1.18 0.406-0.354 0.802-0.726 1.186-1.112l2.296-2.293c9.506-9.506 9.506-24.92 0-34.426s-24.918-9.506-34.426 0l-2.294 2.293c-0.384 0.386-0.754 0.78-1.108 1.184-0.407 0.357-0.804 0.728-1.192 1.116l-2.294 2.296c-0.384 0.384-0.751 0.776-1.103 1.178-0.405 0.356-0.802 0.726-1.188 1.112l-2.296 2.294c-0.384 0.386-0.754 0.78-1.106 1.183-0.405 0.357-0.804 0.728-1.192 1.116l-2.296 2.296c-0.382 0.384-0.751 0.779-1.104 1.182-0.404 0.352-0.8 0.722-1.183 1.106l-0.93 0.932-0.932-0.932c-0.384-0.384-0.78-0.754-1.182-1.106a24.481 24.481 0 0 0-1.106-1.182l-2.293-2.296c-0.388-0.388-0.787-0.76-1.192-1.116a25.571 25.571 0 0 0-1.108-1.183l-2.296-2.294a25.24 25.24 0 0 0-1.188-1.112c-0.35-0.403-0.718-0.794-1.104-1.178l-2.294-2.296c-0.386-0.388-0.784-0.76-1.19-1.116a25.571 25.571 0 0 0-1.107-1.184l-2.296-2.293c-9.506-9.506-24.92-9.506-34.424 0-9.508 9.505-9.508 24.92 0 34.426l2.294 2.293c0.386 0.386 0.782 0.758 1.186 1.112 0.354 0.403 0.721 0.796 1.105 1.18l2.294 2.296c0.388 0.388 0.785 0.758 1.192 1.114 0.354 0.404 0.722 0.8 1.108 1.184l2.294 2.295c0.386 0.387 0.782 0.756 1.188 1.11 0.352 0.403 0.72 0.796 1.102 1.18l2.295 2.296c0.386 0.386 0.785 0.758 1.19 1.114 0.355 0.405 0.724 0.8 1.11 1.186l0.959 0.958c-0.068 0.076-0.145 0.149-0.212 0.227-0.403 0.354-0.798 0.722-1.182 1.108l-2.296 2.293a24.16 24.16 0 0 0-1.11 1.188c-0.405 0.354-0.802 0.724-1.188 1.112l-2.295 2.294c-0.384 0.386-0.754 0.78-1.106 1.184-0.405 0.354-0.8 0.722-1.184 1.108l-2.296 2.293a25.24 25.24 0 0 0-1.112 1.188c-0.404 0.355-0.802 0.726-1.188 1.114l-2.294 2.296c-9.505 9.508-9.5 24.92 0.007 34.426a24.272 24.272 0 0 0 17.21 7.124 24.26 24.26 0 0 0 17.217-7.134l2.293-2.294c0.386-0.386 0.754-0.78 1.106-1.182 0.405-0.354 0.798-0.722 1.184-1.108l2.296-2.293a25.24 25.24 0 0 0 1.112-1.188c0.404-0.354 0.8-0.724 1.186-1.112l2.295-2.296c0.384-0.384 0.754-0.778 1.108-1.182 0.403-0.354 0.798-0.724 1.182-1.108l2.296-2.293c0.386-0.389 0.756-0.785 1.112-1.188 0.088-0.078 0.168-0.162 0.256-0.24 0.086 0.078 0.168 0.162 0.256 0.24 0.356 0.404 0.724 0.8 1.112 1.188l2.294 2.293c0.386 0.384 0.78 0.754 1.184 1.108 0.352 0.405 0.721 0.798 1.107 1.182l2.294 2.296c0.386 0.388 0.783 0.758 1.188 1.112 0.354 0.405 0.726 0.802 1.11 1.188l2.296 2.293c0.386 0.386 0.782 0.754 1.184 1.108 0.352 0.403 0.722 0.796 1.106 1.182l2.295 2.294a24.253 24.253 0 0 0 17.217 7.134 24.264 24.264 0 0 0 17.208-7.124c9.508-9.506 9.512-24.918 0.008-34.426l-2.295-2.296c-0.386-0.388-0.783-0.76-1.188-1.114a24.206 24.206 0 0 0-1.112-1.188l-2.296-2.293a23.993 23.993 0 0 0-1.182-1.108 25.571 25.571 0 0 0-1.108-1.184l-2.294-2.294a24.142 24.142 0 0 0-1.187-1.112 24.206 24.206 0 0 0-1.112-1.188l-2.294-2.293a23.97 23.97 0 0 0-1.184-1.108c-0.068-0.078-0.144-0.15-0.212-0.227l0.959-0.958c0.383-0.386 0.752-0.783 1.108-1.186z" p-id="7503" fill="#ffffff"></path></svg>