<?xml version="1.0" standalone="no"?><!DOCTYPE svg PUBLIC "-//W3C//DTD SVG 1.1//EN" "http://www.w3.org/Graphics/SVG/1.1/DTD/svg11.dtd"><svg t="1592719325029" class="icon" viewBox="0 0 1024 1024" version="1.1" xmlns="http://www.w3.org/2000/svg" p-id="3085" xmlns:xlink="http://www.w3.org/1999/xlink" width="32" height="32"><defs><style type="text/css"></style></defs><path d="M343.659991 288.173259c-41.573861 0-75.457576 33.525558-75.457576 75.275427 0 41.575908 33.884738 75.547627 75.457576 75.547627 41.566698 0 75.547627-33.971719 75.547627-75.547627C419.207617 321.698816 385.226688 288.173259 343.659991 288.173259L343.659991 288.173259zM343.659991 288.173259" p-id="3086" fill="#ffffff"></path><path d="M394.624732 683.34239 607.888907 458.162838 607.888907 102.294804 79.698157 102.294804l0 817.362756 395.35435 0 0-64.60746 0-44.01547 0-94.247524-110.701265 0L394.624732 683.34239 394.624732 683.34239zM164.547637 365.439016c0-99.127671 79.978543-179.467441 179.113377-179.467441 99.311867 0 179.554422 80.33977 179.554422 179.467441 0 99.039667-80.242556 179.291432-179.554422 179.291432C244.526179 544.730449 164.547637 464.478683 164.547637 365.439016L164.547637 365.439016zM164.547637 365.439016" p-id="3087" fill="#ffffff"></path><path d="M875.551016 610.694813l-44.455491-47.176462L696.27084 420.922678 450.018344 681.000042l65.788355 0L515.806699 785.104051l0 35.96512 0 86.47756c0 6.782473 5.51562 12.110829 12.110829 12.110829l41.390689 0 18.163685 0 221.577514 0 30.18651 0 25.119097 0c6.774287 0 12.112875-5.328355 12.112875-12.110829l0-86.47756L876.467899 785.104051 876.467899 681.000042l65.786309 0L875.551016 610.694813 875.551016 610.694813zM875.551016 610.694813" p-id="3088" fill="#ffffff"></path></svg>